<svg width="48" height="48" viewBox="0 0 48 48" fill="none" xmlns="http://www.w3.org/2000/svg">
<circle opacity="0.5" cx="24" cy="24" r="24" fill="white"/>
<path d="M26.311 29.5932C26.2361 29.5193 26.1764 29.4313 26.1356 29.3343C26.0947 29.2373 26.0734 29.1332 26.0728 29.0279C26.0723 28.9227 26.0925 28.8183 26.1323 28.7209C26.1722 28.6235 26.2308 28.5349 26.305 28.4602L30.039 24.7112H15.8C15.5878 24.7112 15.3843 24.6269 15.2343 24.4769C15.0843 24.3268 15 24.1234 15 23.9112C15 23.699 15.0843 23.4955 15.2343 23.3455C15.3843 23.1955 15.5878 23.1112 15.8 23.1112H30.039L26.296 19.3622C26.1487 19.21 26.0668 19.0062 26.0679 18.7945C26.069 18.5827 26.1531 18.3798 26.302 18.2292C26.4526 18.0813 26.6556 17.9989 26.8667 18C27.0778 18.0012 27.2799 18.0857 27.429 18.2352L32.501 23.3452C32.5701 23.4192 32.6262 23.5044 32.667 23.5972C32.7088 23.6944 32.7299 23.7993 32.729 23.9052C32.7292 24.1145 32.6473 24.3155 32.501 24.4652L27.428 29.5752C27.3562 29.6504 27.2702 29.7106 27.175 29.7523C27.0798 29.794 26.9772 29.8163 26.8732 29.818C26.7693 29.8197 26.6661 29.8007 26.5695 29.7621C26.473 29.7235 26.3851 29.6661 26.311 29.5932V29.5932Z" fill="white"/>
</svg>
