<svg width="48" height="48" viewBox="0 0 48 48" fill="none" xmlns="http://www.w3.org/2000/svg">
<circle opacity="0.5" cx="24" cy="24" r="24" transform="rotate(-180 24 24)" fill="white"/>
<g style="mix-blend-mode:overlay">
<path d="M21.689 18.4068C21.7639 18.4807 21.8236 18.5687 21.8644 18.6657C21.9053 18.7627 21.9266 18.8668 21.9272 18.9721C21.9277 19.0773 21.9075 19.1817 21.8677 19.2791C21.8278 19.3765 21.7692 19.4651 21.695 19.5398L17.961 23.2888L32.2 23.2888C32.4122 23.2888 32.6157 23.3731 32.7657 23.5231C32.9157 23.6732 33 23.8766 33 24.0888C33 24.301 32.9157 24.5045 32.7657 24.6545C32.6157 24.8045 32.4122 24.8888 32.2 24.8888L17.961 24.8888L21.704 28.6378C21.8513 28.79 21.9332 28.9938 21.9321 29.2055C21.931 29.4173 21.8469 29.6202 21.698 29.7708C21.5474 29.9187 21.3444 30.0011 21.1333 30C20.9222 29.9988 20.7201 29.9143 20.571 29.7648L15.499 24.6548C15.4299 24.5808 15.3738 24.4956 15.333 24.4028C15.2912 24.3056 15.2701 24.2007 15.271 24.0948C15.2708 23.8855 15.3527 23.6845 15.499 23.5348L20.572 18.4248C20.6438 18.3496 20.7298 18.2894 20.825 18.2477C20.9202 18.206 21.0228 18.1837 21.1268 18.182C21.2307 18.1803 21.3339 18.1993 21.4305 18.2379C21.527 18.2765 21.6149 18.3339 21.689 18.4068V18.4068Z" fill="white"/>
</g>
</svg>
