<svg width="13" height="13" viewBox="0 0 13 13" fill="none" xmlns="http://www.w3.org/2000/svg">
<path d="M1.47428 0.947754C2.27428 0.947754 2.94796 1.62143 2.94796 2.42144C2.94796 3.26353 2.23217 3.91617 1.47428 3.89512C0.695337 3.91617 0.000602707 3.26353 0.000602707 2.42144C-0.0204556 1.60037 0.653245 0.947754 1.47428 0.947754Z" fill="white"/>
<path d="M2.29539 12.9478H0.611172C0.379602 12.9478 0.190125 12.7583 0.190125 12.5268V5.15835C0.190125 4.92678 0.358544 4.7373 0.590114 4.7373H2.29536C2.52693 4.7373 2.71641 4.92678 2.71641 5.15835V12.5478C2.71643 12.7583 2.52696 12.9478 2.29539 12.9478Z" fill="white"/>
<path d="M12.19 7.30555C12.19 5.74766 11.0321 4.52661 9.47418 4.52661H9.03207C8.18998 4.52661 7.36892 4.9266 6.92681 5.57924C6.77945 5.7266 6.71627 5.78978 6.71627 5.78978V4.94768C6.71627 4.86347 6.58995 4.73715 6.50574 4.73715H4.40048C4.31627 4.73715 4.18994 4.82136 4.18994 4.92663V12.7793C4.18994 12.8635 4.31627 12.9477 4.40048 12.9477H6.71625C6.80046 12.9477 6.92679 12.8635 6.92679 12.7793V8.23186C6.92679 7.45291 7.51625 6.80027 8.2952 6.77924C8.69519 6.77924 9.05308 6.9266 9.32677 7.20028C9.5794 7.45291 9.68467 7.81081 9.68467 8.2108V12.7371C9.68467 12.8213 9.81099 12.9476 9.8952 12.9476H12.0005C12.0847 12.9476 12.211 12.8213 12.211 12.7371V7.30555H12.19Z" fill="white"/>
</svg>
